HIERARCHY
ROOT SpineBase
{
  OFFSET 0.000000 0.000000 0.000000
  CHANNELS 6 Xposition Yposition Zposition Zrotation Xrotation Yrotation
  JOINT SpineMid
  {
    OFFSET 0.000000 26.595630 0.000000
    CHANNELS 3 Zrotation Xrotation Yrotation
    JOINT SpineShoulder
    {
      OFFSET 0.777743 19.617458 -0.912288
      CHANNELS 3 Zrotation Xrotation Yrotation
      JOINT Neck
      {
        OFFSET 0.468100 6.537096 -0.664066
        CHANNELS 3 Zrotation Xrotation Yrotation
        JOINT Head
        {
          OFFSET -1.489172 12.061744 -4.067333
          CHANNELS 3 Zrotation Xrotation Yrotation
          End Site
          {
            OFFSET 0 0 0
          }
        }
      }
      JOINT ShoulderLeft
      {
        OFFSET -17.559474 -2.270541 3.928936
        CHANNELS 3 Zrotation Xrotation Yrotation
        JOINT ElbowLeft
        {
          OFFSET -4.982679 -26.954459 4.510247
          CHANNELS 3 Zrotation Xrotation Yrotation
          JOINT WristLeft
          {
            OFFSET -2.081648 -20.881996 -2.393012
            CHANNELS 3 Zrotation Xrotation Yrotation
            JOINT HandLeft
            {
              OFFSET 0.099625 -3.685490 1.145447
              CHANNELS 3 Zrotation Xrotation Yrotation
              JOINT HandTipLeft
              {
                OFFSET -0.672901 -4.576957 0.188361
                CHANNELS 3 Zrotation Xrotation Yrotation
                End Site
                {
                  OFFSET 0 0 0
                }
              }
              JOINT ThumbLeft
              {
                OFFSET -2.240458 -0.336991 -1.896984
                CHANNELS 3 Zrotation Xrotation Yrotation
                End Site
                {
                  OFFSET 0 0 0
                }
              }
            }
          }
        }
      }
      JOINT ShoulderRight
      {
        OFFSET 14.350034 -1.310359 -2.278344
        CHANNELS 3 Zrotation Xrotation Yrotation
        JOINT ElbowRight
        {
          OFFSET 5.764606 -24.344432 1.193177
          CHANNELS 3 Zrotation Xrotation Yrotation
          JOINT WristRight
          {
            OFFSET -1.155301 -19.887796 -6.803040
            CHANNELS 3 Zrotation Xrotation Yrotation
            JOINT HandRight
            {
              OFFSET -1.932545 -4.415312 -2.452539
              CHANNELS 3 Zrotation Xrotation Yrotation
              JOINT HandTipRight
              {
                OFFSET -0.105073 -6.395020 -2.168445
                CHANNELS 3 Zrotation Xrotation Yrotation
                End Site
                {
                  OFFSET 0 0 0
                }
              }
              JOINT ThumbRight
              {
                OFFSET -0.927593 -0.494982 -0.826704
                CHANNELS 3 Zrotation Xrotation Yrotation
                End Site
                {
                  OFFSET 0 0 0
                }
              }
            }
          }
        }
      }
    }
  }
  JOINT HipLeft
  {
    OFFSET -6.137422 0.147095 -2.434706
    CHANNELS 3 Zrotation Xrotation Yrotation
    JOINT KneeLeft
    {
      OFFSET -3.740030 -26.071542 3.731916
      CHANNELS 3 Zrotation Xrotation Yrotation
      JOINT AnkleLeft
      {
        OFFSET -3.199077 -34.838412 9.660806
        CHANNELS 3 Zrotation Xrotation Yrotation
        JOINT FootLeft
        {
          OFFSET -1.409422 -3.066046 -12.446518
          CHANNELS 3 Zrotation Xrotation Yrotation
          End Site
          {
            OFFSET 0 0 0
          }
        }
      }
    }
  }
  JOINT HipRight
  {
    OFFSET 6.998481 2.002917 -3.489548
    CHANNELS 3 Zrotation Xrotation Yrotation
    JOINT KneeRight
    {
      OFFSET 5.093514 -24.037110 -4.605063
      CHANNELS 3 Zrotation Xrotation Yrotation
      JOINT AnkleRight
      {
        OFFSET 2.862534 -28.387273 2.457104
        CHANNELS 3 Zrotation Xrotation Yrotation
        JOINT FootRight
        {
          OFFSET -1.232452 -3.317436 -11.920421
          CHANNELS 3 Zrotation Xrotation Yrotation
          End Site
          {
            OFFSET 0 0 0
          }
        }
      }
    }
  }
}
MOTION
Frames: 5
Frame Time: 0.033333
-56.180968 73.895901 368.086001 -0.000000 0.000000 4.591128 -0.000000 0.000000 -4.591128 -0.000000 0.000000 0.000000 -0.000000 0.000000 0.000000 0.000000 0.000000 0.000000 -0.000000 0.000000 0.000000 -0.000000 0.000000 0.000000 -0.000000 0.000000 0.000000 -0.000000 0.000000 0.000000 0.000000 0.000000 0.000000 0.000000 0.000000 0.000000 -0.000000 0.000000 0.000000 -0.000000 0.000000 0.000000 -0.000000 0.000000 0.000000 -0.000000 0.000000 0.000000 0.000000 0.000000 0.000000 0.000000 0.000000 0.000000 -0.000000 0.000000 -4.591128 -0.000000 0.000000 0.000000 -0.000000 0.000000 0.000000 0.000000 0.000000 0.000000 -0.000000 0.000000 -4.591128 -0.000000 0.000000 0.000000 -0.000000 0.000000 0.000000 0.000000 0.000000 0.000000
-56.808891 73.885658 368.436179 -1.161871 -0.082959 5.020331 1.164673 -0.019044 -5.020978 -0.000000 0.000000 0.000000 -0.669777 -0.943325 -0.347125 0.000000 0.000000 0.000000 0.435569 2.199591 -0.343478 0.134781 1.946789 -0.150109 -2.610398 11.405318 0.404570 3.312098 -13.933495 0.604472 0.000000 0.000000 0.000000 0.000000 0.000000 0.000000 -0.810021 0.577807 0.101400 -0.147206 2.022352 0.094825 2.104082 -2.468495 -0.804640 -1.323773 3.931799 0.681270 0.000000 0.000000 0.000000 0.000000 0.000000 0.000000 2.905427 -0.173318 -4.767143 -1.747551 0.009015 -0.250776 -0.000000 0.000000 0.000000 0.000000 0.000000 0.000000 2.514627 0.247295 -5.195052 -1.320322 -0.387401 0.166921 -0.675900 2.070664 1.566329 0.000000 0.000000 0.000000
-57.316144 73.881557 368.731134 -2.109614 -0.133555 5.404394 1.697050 0.773846 -5.457593 0.816429 0.601975 -0.008777 -1.559029 -3.064500 -0.605314 0.000000 0.000000 0.000000 0.546748 2.834199 -0.588749 0.264629 3.792137 -0.314863 -4.903155 21.741654 1.087773 6.392304 -26.238137 2.065129 0.000000 0.000000 0.000000 0.000000 0.000000 0.000000 -1.808755 -0.307029 0.227814 -0.174110 3.562970 0.159376 3.996745 -4.760518 -1.308277 -2.579360 7.547562 1.190665 0.000000 0.000000 0.000000 0.000000 0.000000 0.000000 5.185464 -0.357576 -4.950485 -3.623067 0.775489 -0.658624 0.545353 -0.744065 0.222792 0.000000 0.000000 0.000000 4.542520 0.406839 -5.717880 -2.370702 -0.711913 0.290276 -1.050634 3.181642 2.376547 0.000000 0.000000 0.000000
-57.702727 73.883598 368.970865 -2.838177 -0.151242 5.742206 2.303699 1.038226 -5.812758 1.135524 0.822425 -0.007278 -2.194467 -4.121357 -0.852023 0.000000 0.000000 0.000000 0.821660 4.168572 -0.863515 0.388286 5.515143 -0.490617 -6.664686 29.548360 1.895192 9.088169 -35.389013 3.878358 0.000000 0.000000 0.000000 0.000000 0.000000 0.000000 -2.508052 -0.393289 0.307396 -0.103510 4.676874 0.182266 5.701766 -6.916146 -1.551675 -3.694592 10.678925 1.514547 0.000000 0.000000 0.000000 0.000000 0.000000 0.000000 6.890076 -0.543472 -5.132194 -4.800164 1.111816 -0.880535 0.745226 -1.055556 0.309845 0.000000 0.000000 0.000000 6.077509 0.495693 -6.153888 -3.152737 -0.971840 0.374262 -1.131312 3.485512 2.519244 0.000000 0.000000 0.000000
-57.968640 73.891781 369.155373 -3.343727 -0.135634 6.032744 2.741838 1.225058 -6.114189 1.392913 0.985322 -0.002727 -2.742995 -4.877449 -1.055440 0.000000 0.000000 0.000000 1.098683 5.460395 -1.127055 0.505050 7.105666 -0.674804 -7.807511 34.721944 2.659553 11.122451 -41.258073 5.463110 0.000000 0.000000 0.000000 0.000000 0.000000 0.000000 -3.066006 -0.430231 0.370618 0.047816 5.407472 0.156962 7.237253 -8.966379 -1.564539 -4.605135 13.181689 1.634374 0.000000 0.000000 0.000000 0.000000 0.000000 0.000000 8.054254 -0.722691 -5.307213 -5.602754 1.396314 -1.036164 0.885656 -1.314443 0.375536 0.000000 0.000000 0.000000 7.115720 0.528377 -6.500233 -3.668299 -1.166257 0.422215 -0.919720 3.018229 2.010954 0.000000 0.000000 0.000000
